<svg width="178" height="186" viewBox="0 0 178 186" fill="none" xmlns="http://www.w3.org/2000/svg">
<circle cx="88.7801" cy="97.2593" r="86.1307" fill="black" stroke="white" stroke-width="5"/>
<mask id="mask0_48_21" style="mask-type:alpha" maskUnits="userSpaceOnUse" x="9" y="17" width="160" height="160">
<circle cx="88.7804" cy="97.2593" r="79.212" fill="black" stroke="black"/>
</mask>
<g mask="url(#mask0_48_21)">
<circle cx="88.7799" cy="97.2593" r="79.212" fill="white" stroke="white"/>
<path d="M58.2505 170.916L60.592 163.892L65.8426 173.63L61.5676 172.194L58.2505 170.916Z" fill="white"/>
<path d="M69.68 174.68L63.1236 162.552L77.35 162.342L72.2448 175.271L69.68 174.68Z" fill="white"/>
<path d="M80.2342 162.9H80.525L86.6627 176.966L83.9931 176.841L80.9898 176.618L77.8336 176.243L75.2171 175.794L80.2342 162.9Z" fill="white"/>
<path d="M97.4713 162.342H83.4097L89.8896 176.966H90.8013L97.4713 162.342Z" fill="white"/>
<path d="M94.0473 176.786L100.056 163.891L103.958 175.531L101.21 176.02L98.6637 176.359L95.8913 176.66L94.0473 176.786Z" fill="white"/>
<path d="M106.827 174.914L102.578 162.542C103.769 162.542 106.871 162.581 109.749 162.737C112.627 162.893 115.474 163.019 116.537 163.062L110.691 173.928L108.491 174.514L106.827 174.914Z" fill="white"/>
<path d="M114.685 172.668L118.387 165.743L119.838 170.696L118.657 171.185L116.475 172.025L114.685 172.668Z" fill="white"/>
<path d="M39.6472 140.378L23.0816 142.269L24.3724 144.13C26.2903 143.892 29.1163 143.551 31.8727 143.218C35.0628 142.833 38.1597 142.459 39.6472 142.269C42.8455 141.861 61.6627 140.213 78.9614 140.05C92.8004 139.92 110.132 140.812 117.068 141.274C123.269 141.858 136.7 143.198 140.813 143.885C144.925 144.573 150.033 145.532 152.073 145.925L152.732 144.841L141.612 143.026L121.416 140.756L102.052 139.471L80.7207 139.017L54.0948 139.395L39.6472 140.378Z" fill="black"/>
<path fill-rule="evenodd" clip-rule="evenodd" d="M152.073 145.925L148.647 150.25L144.077 154.656C138.582 154.003 126.358 152.6 121.416 152.208C116.474 151.817 106.447 151.338 102.052 151.148L85.841 150.998C84.591 150.986 83.3451 150.961 82.0952 150.939C78.9558 150.883 72.4556 150.823 67.2113 151.148C63.2557 151.392 57.8085 151.529 54.6302 151.592C52.8973 151.627 51.1683 151.679 49.4372 151.762L41.8344 152.127L31.9611 153.187L27.8812 148.863L24.3724 144.13C26.2903 143.892 29.1163 143.551 31.8727 143.218C35.0628 142.833 38.1597 142.459 39.6472 142.269C42.8455 141.861 61.6627 140.213 78.9614 140.05C92.8004 139.92 110.132 140.812 117.068 141.274C123.269 141.858 136.7 143.198 140.813 143.885C144.925 144.573 150.033 145.532 152.073 145.925ZM33.0648 154.247L35.1721 156.299C36.2299 157.196 37.912 158.625 38.6116 159.224C38.5791 159.206 38.6279 159.251 38.7856 159.382C39.0506 159.602 38.9381 159.503 38.6116 159.224C38.7509 159.301 40.382 160.548 41.3584 161.3C42.4568 161.19 45.3713 160.941 48.2418 160.824C51.1123 160.706 60.4219 160.409 64.7179 160.274L83.7757 160.091C89.3226 160.177 101.661 160.384 106.641 160.531C110.427 160.642 114.431 160.862 118.156 161.066C120.555 161.198 122.838 161.323 124.874 161.409C129.033 161.585 133.289 162.102 134.897 162.338L138.338 159.779L142.486 156.132L134.308 154.837L121.601 153.308L102.569 151.749L89.5088 151.308H82.2138H74.9188L57.137 152.127C54.7412 152.305 48.7582 152.768 43.9925 153.187C39.2268 153.607 34.7052 154.014 33.0648 154.247ZM132.191 164.126L129.844 165.602L127.835 166.76L125.924 167.806L123.713 168.938L122.5 169.51L120.706 163.225L132.191 164.126ZM44.0372 163.218L57.8498 162.695L55.578 169.761C54.0808 169.033 50.7643 167.396 49.4763 166.674C48.1883 165.951 45.3136 164.069 44.0372 163.218Z" fill="white"/>
<path d="M41.8344 152.127L31.9611 153.187L33.0648 154.247C34.7052 154.014 39.2268 153.607 43.9925 153.187C48.7582 152.768 54.7412 152.305 57.137 152.127L74.9188 151.308H82.2138H89.5088L102.569 151.749L121.601 153.308L134.308 154.837L142.486 156.132L144.077 154.656C138.582 154.003 126.358 152.6 121.416 152.208C116.474 151.817 106.447 151.338 102.052 151.148L85.841 150.998C84.591 150.986 83.3451 150.961 82.0952 150.939C78.9558 150.883 72.4556 150.823 67.2113 151.148C63.2557 151.392 57.8085 151.529 54.6302 151.592C52.8973 151.627 51.1683 151.679 49.4372 151.762L41.8344 152.127Z" fill="black"/>
<path d="M134.897 162.338C133.289 162.102 129.033 161.585 124.874 161.409C122.838 161.323 120.555 161.198 118.156 161.066C114.431 160.862 110.427 160.642 106.641 160.531C101.661 160.384 89.3226 160.177 83.7757 160.091L64.7179 160.274C60.4219 160.409 51.1123 160.706 48.2418 160.824C45.3713 160.941 42.4568 161.19 41.3584 161.3L44.0372 163.218L57.8498 162.695L55.578 169.761L58.2505 170.916L60.592 163.892L65.8426 173.63L69.68 174.68L63.1236 162.552L77.35 162.342L72.2448 175.271L75.2171 175.794L80.2342 162.9H80.525L86.6627 176.966H89.8896L83.4097 162.342H97.4713L90.8013 176.966L94.0473 176.786L100.056 163.891L103.958 175.531L106.827 174.914L102.578 162.542C103.769 162.542 106.871 162.581 109.749 162.737C112.627 162.893 115.474 163.019 116.537 163.062L110.691 173.928L114.685 172.668L118.387 165.743L119.838 170.696L122.5 169.51L120.706 163.225L132.191 164.126L134.897 162.338Z" fill="black"/>
<path d="M35.2899 111.156C29.3375 112.78 26.3892 114.185 21.8343 111.099C16.9128 107.764 16.9765 107.077 15.2298 103.792C10.7841 95.4309 8.52725 85.2515 13.4853 70.3942L-5.39209 126.962L0.387052 135.858L10.2974 137.153L28.3505 135.699L49.113 133.643L88.6965 132.106L128.539 134.325L149.235 137.432L164.068 141.388L177.355 135.749L183.135 126.853L164.144 70.1644C169.98 87.026 165.779 97.5392 162.513 103.683C160.766 106.968 160.83 107.655 155.908 110.99C151.353 114.076 148.405 112.671 142.453 111.047C137.375 109.663 128.603 120.031 123.912 120.743C112.915 122.41 104.669 111.46 103.621 107.925H95.8523C95.8523 107.925 95.4451 110.695 94.0153 112.441C92.5856 114.188 92.0073 115.26 88.6965 115.591C85.5523 115.591 84.4977 113.783 83.3992 112.441C82.3007 111.099 82.1299 107.925 82.1299 107.925H73.4886C73.4886 110.444 64.4337 122.41 53.4368 120.743C48.7461 120.031 40.3676 109.772 35.2899 111.156Z" fill="black"/>
</g>
<path d="M102.177 48.3053L102.177 43.8085L97.0604 35.0668L92.4937 26.3678L91.9701 32.0948L91.9701 98.99L134.074 98.99C134.62 98.99 135.065 98.552 135.074 98.006L135.333 81.8107C135.334 81.7543 135.311 81.7001 135.27 81.6615L134.892 81.3066L135.058 77.9273L134.885 77.634C134.41 76.8289 133.232 76.8697 132.814 77.7057L132.814 81.1681L132.415 81.6673C132.387 81.7028 132.371 81.7469 132.371 81.7923L132.371 86.2173L103.243 62.7995L98.3449 57.6877L98.3449 51.6738L98.3449 46.3834L102.177 48.3053Z" fill="black"/>
<path d="M75.1124 48.3053L75.1124 43.8085L80.2291 35.0668L84.7959 26.3678L85.3195 32.0948L85.3195 98.99L43.2156 98.99C42.6696 98.99 42.2245 98.552 42.2158 98.006L41.9561 81.8107C41.9552 81.7543 41.9781 81.7001 42.0192 81.6615L42.3978 81.3066L42.2315 77.9273L42.4045 77.634C42.8793 76.8289 44.0573 76.8697 44.4753 77.7057L44.4753 81.1681L44.8747 81.6673C44.903 81.7028 44.9185 81.7468 44.9185 81.7923L44.9185 86.2173L74.0469 62.7995L78.9447 57.6877L78.9447 51.6737L78.9447 46.3834L75.1124 48.3053Z" fill="black"/>
<path d="M82.0803 67.6866C81.6523 62.683 79.2875 57.13 77.9321 54.979C76.5767 57.13 73.7589 62.683 73.3309 67.6866C72.9749 71.8486 73.019 81.2663 73.1465 84.9263C73.1792 85.867 73.0858 86.8175 72.8061 87.7163L70.6868 94.5282C70.3876 95.4901 70.2354 96.4916 70.2354 97.4989V103.922H73.4162C73.7702 103.922 74.1178 104.015 74.4236 104.194L75.1663 104.627L74.3248 105.603H77.3796H77.8326H80.8874L80.0459 104.627L80.7887 104.194C81.0945 104.015 81.4421 103.922 81.7961 103.922H84.9769V97.4989C84.9769 96.4916 84.8247 95.4901 84.5254 94.5282L82.4061 87.7163C82.1265 86.8175 82.0361 85.8673 82.0807 84.9272C82.2546 81.2678 82.4363 71.8489 82.0803 67.6866Z" fill="white"/>
<path d="M77.3796 105.603H80.8874L80.0459 104.627L80.7887 104.194C81.0945 104.015 81.4421 103.922 81.7961 103.922H84.9769V97.4989C84.9769 96.4916 84.8247 95.49 84.5254 94.5282L82.4061 87.7163C82.1265 86.8175 82.0361 85.8673 82.0807 84.9272C82.2546 81.2678 82.4363 71.8489 82.0803 67.6866C81.6523 62.683 79.2875 57.13 77.9321 54.979C76.5767 57.13 73.7589 62.683 73.3309 67.6866C72.9749 71.8486 73.019 81.2663 73.1465 84.9263C73.1792 85.867 73.0858 86.8175 72.8061 87.7163L70.6868 94.5282C70.3876 95.49 70.2354 96.4916 70.2354 97.4989V103.922H73.4162C73.7702 103.922 74.1178 104.015 74.4236 104.194L75.1663 104.627L74.3248 105.603H77.8326" stroke="black" stroke-width="2"/>
<path d="M104.428 67.6866C104 62.6829 101.635 57.1299 100.28 54.9789C98.9244 57.1299 96.1066 62.6829 95.6786 67.6866C95.3226 71.8485 95.3666 81.2663 95.4941 84.9262C95.5269 85.8669 95.4334 86.8175 95.1538 87.7162L93.0345 94.5281C92.7352 95.49 92.583 96.4915 92.583 97.4989V103.921H95.7638C96.1178 103.921 96.4654 104.015 96.7712 104.194L97.514 104.627L96.6725 105.603H99.7273H100.18H103.235L102.394 104.627L103.136 104.194C103.442 104.015 103.79 103.921 104.144 103.921H107.325V97.4989C107.325 96.4915 107.172 95.49 106.873 94.5281L104.754 87.7162C104.474 86.8175 104.384 85.8673 104.428 84.9271C104.602 81.2678 104.784 71.8489 104.428 67.6866Z" fill="white"/>
<path d="M99.7273 105.603H103.235L102.394 104.627L103.136 104.194C103.442 104.015 103.79 103.921 104.144 103.921H107.325V97.4989C107.325 96.4915 107.172 95.49 106.873 94.5281L104.754 87.7162C104.474 86.8175 104.384 85.8673 104.428 84.9271C104.602 81.2678 104.784 71.8489 104.428 67.6866C104 62.6829 101.635 57.1299 100.28 54.9789C98.9244 57.1299 96.1066 62.6829 95.6786 67.6866C95.3226 71.8485 95.3666 81.2663 95.4941 84.9262C95.5269 85.8669 95.4334 86.8175 95.1538 87.7162L93.0345 94.5281C92.7352 95.49 92.583 96.4915 92.583 97.4989V103.921H95.7638C96.1178 103.921 96.4654 104.015 96.7712 104.194L97.514 104.627L96.6725 105.603H100.18" stroke="black" stroke-width="2"/>
<path d="M96.8685 27.0045C96.0925 17.2271 91.3498 6.47795 88.8925 2.27468C86.4352 6.47795 81.782 17.2271 81.006 27.0045C80.2673 36.3137 80.4787 59.079 80.7797 63.0242C80.8033 63.3335 80.8257 63.6284 80.8257 63.9385V69.3145V85.251V97.8102L82.808 101.095H88.3462H89.1676H94.7059L96.6881 97.8102V83.5623V69.3145V63.9385C96.6881 63.6284 96.7105 63.3335 96.7365 63.0245C97.0688 59.08 97.6073 36.3139 96.8685 27.0045Z" fill="white"/>
<path d="M88.3462 101.095H94.7059L96.6881 97.8102V83.5623V69.3145V63.9385C96.6881 63.6284 96.7105 63.3335 96.7365 63.0245C97.0688 59.08 97.6073 36.3139 96.8685 27.0045C96.0925 17.2271 91.3499 6.47795 88.8925 2.27468C86.4352 6.47795 81.782 17.2271 81.006 27.0045C80.2673 36.3137 80.4787 59.079 80.7797 63.0242C80.8033 63.3335 80.8257 63.6284 80.8257 63.9385V69.3145V85.251V97.8102L82.808 101.095H89.1676" stroke="black" stroke-width="2"/>
</svg>
